<?xml version="1.0" encoding="UTF-8" standalone="no"?>
<!DOCTYPE svg PUBLIC "-//W3C//DTD SVG 1.1//EN"
 "http://www.w3.org/Graphics/SVG/1.1/DTD/svg11.dtd">
<svg width="16" height="16" xmlns="http://www.w3.org/2000/svg" class="octicon octicon-file color-icon-tertiary" data-view-component="true" version="1.1" aria-hidden="true" aria-label="File">
 <g>
  <rect stroke="null" rx="2" id="svg_4" height="15.43582" width="12.67943" y="0.28209" x="1.66029" fill="#ffffff"/>
  <path stroke="null" id="svg_1" d="m4.1201,2.5225a0.22823,0.22823 0 0 0 -0.22823,0.22823l0,10.49855c0,0.12598 0.10225,0.22823 0.22823,0.22823l7.7598,0a0.22823,0.22823 0 0 0 0.22823,-0.22823l0,-6.61865l-2.51052,0a1.59761,1.59761 0 0 1 -1.59761,-1.59761l0,-2.51052l-3.8799,0zm5.24927,0.51123l0,1.99929c0,0.12598 0.10225,0.22823 0.22823,0.22823l1.99929,0l-2.22752,-2.22752zm-6.84688,-0.283c0,-0.88188 0.71573,-1.59761 1.59761,-1.59761l4.6431,0c0.42359,0 0.82984,0.16798 1.12928,0.46833l3.1167,3.1167c0.30035,0.29944 0.46833,0.70569 0.46833,1.12928l0,7.38185a1.59761,1.59761 0 0 1 -1.59761,1.59761l-7.7598,0a1.59761,1.59761 0 0 1 -1.59761,-1.59761l0,-10.49855z" fill-rule="evenodd"/>
 </g>
</svg>
