<?xml version="1.0" encoding="UTF-8" standalone="no"?>
<!DOCTYPE svg PUBLIC "-//W3C//DTD SVG 1.1//EN"
 "http://www.w3.org/Graphics/SVG/1.1/DTD/svg11.dtd">
<svg width="32" height="32" xmlns="http://www.w3.org/2000/svg" class="octicon octicon-file color-icon-tertiary" data-view-component="true" version="1.1" aria-hidden="true" aria-label="File">
 <g>
  <ellipse fill="#ffffff" ry="14.19223" rx="14.19223" id="svg_2" cy="16" cx="16"/>
  <path id="svg_1" d="m12.02397,10.04566a0.25,0.25 0 0 0 -0.25,0.25l0,11.5c0,0.138 0.112,0.25 0.25,0.25l8.5,0a0.25,0.25 0 0 0 0.25,-0.25l0,-7.25l-2.75,0a1.75,1.75 0 0 1 -1.75,-1.75l0,-2.75l-4.25,0zm5.75,0.56l0,2.19c0,0.138 0.112,0.25 0.25,0.25l2.19,0l-2.44,-2.44zm-7.5,-0.31c0,-0.966 0.784,-1.75 1.75,-1.75l5.086,0c0.464,0 0.909,0.184 1.237,0.513l3.414,3.414c0.329,0.328 0.513,0.773 0.513,1.237l0,8.086a1.75,1.75 0 0 1 -1.75,1.75l-8.5,0a1.75,1.75 0 0 1 -1.75,-1.75l0,-11.5z" fill-rule="evenodd"/>
 </g>
</svg>
